<?xml version="1.0" standalone="no"?>
<!DOCTYPE svg PUBLIC "-//W3C//DTD SVG 20010904//EN"
 "http://www.w3.org/TR/2001/REC-SVG-20010904/DTD/svg10.dtd">
<svg version="1.0" xmlns="http://www.w3.org/2000/svg"
 width="1152.000000pt" height="1152.000000pt" viewBox="0 0 1152.000000 1152.000000"
 preserveAspectRatio="xMidYMid meet">
<metadata>
Created by potrace 1.14, written by Peter Selinger 2001-2017
</metadata>
<g transform="translate(0.000000,1152.000000) scale(0.100000,-0.100000)"
fill="#000000" stroke="none">
<path d="M0 5760 l0 -5760 1530 0 1530 0 0 90 0 90 -90 0 -90 0 0 90 0 90 -90
0 -90 0 0 270 0 270 -90 0 -90 0 0 180 0 180 90 0 90 0 0 180 0 180 -180 0
-180 0 0 270 0 270 -90 0 -90 0 0 90 0 90 -90 0 -90 0 0 270 0 270 -90 0 -90
0 0 720 0 720 90 0 90 0 0 90 0 90 -90 0 -90 0 0 270 0 270 90 0 90 0 0 90 0
90 -90 0 -90 0 0 180 0 180 -90 0 -90 0 0 540 0 540 270 0 270 0 0 -90 0 -90
180 0 180 0 0 -90 0 -90 90 0 90 0 0 -90 0 -90 90 0 90 0 0 270 0 270 180 0
180 0 0 -90 0 -90 90 0 90 0 0 -90 0 -90 90 0 90 0 0 -90 0 -90 90 0 90 0 0
180 0 180 90 0 90 0 0 90 0 90 -90 0 -90 0 0 180 0 180 -90 0 -90 0 0 540 0
540 270 0 270 0 0 -90 0 -90 180 0 180 0 0 -90 0 -90 90 0 90 0 0 -90 0 -90
90 0 90 0 0 270 0 270 180 0 180 0 0 -90 0 -90 90 0 90 0 0 -90 0 -90 90 0 90
0 0 -90 0 -90 90 0 90 0 0 -90 0 -90 90 0 90 0 0 -180 0 -180 90 0 90 0 0 -90
0 -90 90 0 90 0 0 -90 0 -90 90 0 90 0 0 90 0 90 90 0 90 0 0 90 0 90 -90 0
-90 0 0 180 0 180 -90 0 -90 0 0 360 0 360 180 0 180 0 0 180 0 180 90 0 90 0
0 -90 0 -90 90 0 90 0 0 -90 0 -90 180 0 180 0 0 -90 0 -90 90 0 90 0 0 90 0
90 180 0 180 0 0 90 0 90 90 0 90 0 0 -90 0 -90 90 0 90 0 0 -90 0 -90 90 0
90 0 0 -90 0 -90 90 0 90 0 0 -180 0 -180 90 0 90 0 0 -90 0 -90 90 0 90 0 0
-90 0 -90 90 0 90 0 0 -90 0 -90 90 0 90 0 0 -90 0 -90 90 0 90 0 0 -90 0 -90
90 0 90 0 0 90 0 90 180 0 180 0 0 -90 0 -90 270 0 270 0 0 90 0 90 -90 0 -90
0 0 90 0 90 -90 0 -90 0 0 90 0 90 -90 0 -90 0 0 180 0 180 -90 0 -90 0 0 90
0 90 -90 0 -90 0 0 90 0 90 -180 0 -180 0 0 90 0 90 -90 0 -90 0 0 90 0 90
-180 0 -180 0 0 90 0 90 -180 0 -180 0 0 90 0 90 -270 0 -270 0 0 1080 0 1080
-1080 0 -1080 0 0 -810 0 -810 -90 0 -90 0 0 -90 0 -90 -180 0 -180 0 0 90 0
90 -540 0 -540 0 0 360 0 360 540 0 540 0 0 450 0 450 -990 0 -990 0 0 -1080
0 -1080 -90 0 -90 0 0 -90 0 -90 -180 0 -180 0 0 -90 0 -90 -180 0 -180 0 0
-90 0 -90 -90 0 -90 0 0 -90 0 -90 -180 0 -180 0 0 -90 0 -90 -90 0 -90 0 0
-90 0 -90 -90 0 -90 0 0 -180 0 -180 -90 0 -90 0 0 -90 0 -90 -90 0 -90 0 0
-90 0 -90 -90 0 -90 0 0 -90 0 -90 -90 0 -90 0 0 -180 0 -180 -90 0 -90 0 0
-180 0 -180 -90 0 -90 0 0 -180 0 -180 -90 0 -90 0 0 720 0 720 90 0 90 0 0
360 0 360 90 0 90 0 0 270 0 270 90 0 90 0 0 180 0 180 90 0 90 0 0 180 0 180
90 0 90 0 0 90 0 90 90 0 90 0 0 90 0 90 90 0 90 0 0 180 0 180 90 0 90 0 0
90 0 90 90 0 90 0 0 90 0 90 90 0 90 0 0 90 0 90 180 0 180 0 0 90 0 90 90 0
90 0 0 90 0 90 90 0 90 0 0 90 0 90 180 0 180 0 0 90 0 90 180 0 180 0 0 90 0
90 270 0 270 0 0 90 0 90 360 0 360 0 0 90 0 90 990 0 990 0 0 -90 0 -90 360
0 360 0 0 -90 0 -90 270 0 270 0 0 -90 0 -90 180 0 180 0 0 -90 0 -90 180 0
180 0 0 -90 0 -90 90 0 90 0 0 -90 0 -90 90 0 90 0 0 -90 0 -90 180 0 180 0 0
-90 0 -90 90 0 90 0 0 -90 0 -90 90 0 90 0 0 -90 0 -90 90 0 90 0 0 -180 0
-180 90 0 90 0 0 -90 0 -90 90 0 90 0 0 -90 0 -90 90 0 90 0 0 -180 0 -180 90
0 90 0 0 -180 0 -180 90 0 90 0 0 -270 0 -270 90 0 90 0 0 -360 0 -360 90 0
90 0 0 -450 0 -450 90 0 90 0 0 -270 0 -270 -90 0 -90 0 0 180 0 180 -90 0
-90 0 0 -180 0 -180 -90 0 -90 0 0 180 0 180 -180 0 -180 0 0 -180 0 -180 180
0 180 0 0 -180 0 -180 -90 0 -90 0 0 90 0 90 -180 0 -180 0 0 -90 0 -90 -90 0
-90 0 0 90 0 90 -450 0 -450 0 0 -90 0 -90 -90 0 -90 0 0 90 0 90 -90 0 -90 0
0 -90 0 -90 -90 0 -90 0 0 180 0 180 -90 0 -90 0 0 -180 0 -180 90 0 90 0 0
-270 0 -270 -90 0 -90 0 0 -180 0 -180 -180 0 -180 0 0 180 0 180 90 0 90 0 0
90 0 90 90 0 90 0 0 90 0 90 -90 0 -90 0 0 90 0 90 -90 0 -90 0 0 180 0 180
-180 0 -180 0 0 -180 0 -180 180 0 180 0 0 -180 0 -180 -90 0 -90 0 0 90 0 90
-180 0 -180 0 0 -90 0 -90 -90 0 -90 0 0 90 0 90 -450 0 -450 0 0 -90 0 -90
-90 0 -90 0 0 90 0 90 -90 0 -90 0 0 -90 0 -90 90 0 90 0 0 -90 0 -90 90 0 90
0 0 -90 0 -90 180 0 180 0 0 180 0 180 90 0 90 0 0 -270 0 -270 -360 0 -360 0
0 -90 0 -90 90 0 90 0 0 -90 0 -90 180 0 180 0 0 -180 0 -180 -180 0 -180 0 0
90 0 90 -180 0 -180 0 0 180 0 180 -180 0 -180 0 0 -180 0 -180 180 0 180 0 0
-180 0 -180 -90 0 -90 0 0 90 0 90 -180 0 -180 0 0 -90 0 -90 -90 0 -90 0 0
90 0 90 -450 0 -450 0 0 -90 0 -90 -90 0 -90 0 0 90 0 90 -90 0 -90 0 0 -90 0
-90 -90 0 -90 0 0 180 0 180 -90 0 -90 0 0 -180 0 -180 90 0 90 0 0 -270 0
-270 -90 0 -90 0 0 -180 0 -180 -180 0 -180 0 0 270 0 270 180 0 180 0 0 90 0
90 -90 0 -90 0 0 270 0 270 -270 0 -270 0 0 -90 0 -90 -180 0 -180 0 0 -90 0
-90 90 0 90 0 0 -90 0 -90 180 0 180 0 0 90 0 90 -90 0 -90 0 0 90 0 90 180 0
180 0 0 -270 0 -270 -90 0 -90 0 0 -180 0 -180 -90 0 -90 0 0 90 0 90 -180 0
-180 0 0 90 0 90 -180 0 -180 0 0 90 0 90 -90 0 -90 0 0 90 0 90 -90 0 -90 0
0 -90 0 -90 90 0 90 0 0 -90 0 -90 90 0 90 0 0 -90 0 -90 180 0 180 0 0 -90 0
-90 180 0 180 0 0 -90 0 -90 180 0 180 0 0 -90 0 -90 270 0 270 0 0 -180 0
-180 180 0 180 0 0 -90 0 -90 90 0 90 0 0 -270 0 -270 90 0 90 0 0 -270 0
-270 90 0 90 0 0 -90 0 -90 90 0 90 0 0 -180 0 -180 90 0 90 0 0 180 0 180
-90 0 -90 0 0 180 0 180 -90 0 -90 0 0 360 0 360 -90 0 -90 0 0 180 0 180 450
0 450 0 0 90 0 90 90 0 90 0 0 90 0 90 90 0 90 0 0 270 0 270 90 0 90 0 0 180
0 180 90 0 90 0 0 -270 0 -270 90 0 90 0 0 -180 0 -180 90 0 90 0 0 180 0 180
-90 0 -90 0 0 360 0 360 540 0 540 0 0 90 0 90 90 0 90 0 0 90 0 90 90 0 90 0
0 -270 0 -270 90 0 90 0 0 -180 0 -180 90 0 90 0 0 -630 0 -630 90 0 90 0 0
-270 0 -270 90 0 90 0 0 -90 0 -90 90 0 90 0 0 -270 0 -270 90 0 90 0 0 -90 0
-90 1260 0 1260 0 0 5760 0 5760 -5760 0 -5760 0 0 -5760z m1980 5310 l0 -90
-540 0 -540 0 0 -90 0 -90 -180 0 -180 0 0 -270 0 -270 -90 0 -90 0 0 450 0
450 810 0 810 0 0 -90z m9180 -720 l0 -810 -90 0 -90 0 0 540 0 540 -90 0 -90
0 0 180 0 180 -270 0 -270 0 0 90 0 90 450 0 450 0 0 -810z m-4140 -1350 l0
-180 -180 0 -180 0 0 180 0 180 180 0 180 0 0 -180z m2340 -4050 l0 -90 -90 0
-90 0 0 -90 0 -90 180 0 180 0 0 180 0 180 90 0 90 0 0 -270 0 -270 180 0 180
0 0 -90 0 -90 -180 0 -180 0 0 -90 0 -90 -90 0 -90 0 0 -180 0 -180 -180 0
-180 0 0 90 0 90 -270 0 -270 0 0 270 0 270 90 0 90 0 0 -90 0 -90 180 0 180
0 0 -90 0 -90 180 0 180 0 0 90 0 90 90 0 90 0 0 90 0 90 -270 0 -270 0 0 90
0 90 -180 0 -180 0 0 90 0 90 180 0 180 0 0 90 0 90 90 0 90 0 0 -90z m1260
-90 l0 -180 -90 0 -90 0 0 180 0 180 90 0 90 0 0 -180z m-360 -90 l0 -90 -90
0 -90 0 0 90 0 90 90 0 90 0 0 -90z m-3600 -180 l0 -90 -90 0 -90 0 0 90 0 90
90 0 90 0 0 -90z m1260 -90 l0 -180 -90 0 -90 0 0 90 0 90 -90 0 -90 0 0 -90
0 -90 -90 0 -90 0 0 90 0 90 90 0 90 0 0 90 0 90 180 0 180 0 0 -180z m2520
-270 l0 -90 -90 0 -90 0 0 -90 0 -90 -180 0 -180 0 0 90 0 90 180 0 180 0 0
90 0 90 90 0 90 0 0 -90z m-3060 -180 l0 -90 -180 0 -180 0 0 -90 0 -90 -90 0
-90 0 0 90 0 90 90 0 90 0 0 90 0 90 180 0 180 0 0 -90z m360 -180 l0 -90 -90
0 -90 0 0 -90 0 -90 -180 0 -180 0 0 90 0 90 180 0 180 0 0 90 0 90 90 0 90 0
0 -90z m-3060 -720 l0 -90 -90 0 -90 0 0 -90 0 -90 180 0 180 0 0 180 0 180
270 0 270 0 0 -90 0 -90 90 0 90 0 0 90 0 90 180 0 180 0 0 -270 0 -270 -90 0
-90 0 0 90 0 90 -180 0 -180 0 0 90 0 90 -180 0 -180 0 0 -180 0 -180 180 0
180 0 0 -90 0 -90 -180 0 -180 0 0 -90 0 -90 -90 0 -90 0 0 -180 0 -180 -180
0 -180 0 0 90 0 90 -270 0 -270 0 0 270 0 270 90 0 90 0 0 -90 0 -90 180 0
180 0 0 -90 0 -90 180 0 180 0 0 90 0 90 90 0 90 0 0 90 0 90 -270 0 -270 0 0
90 0 90 -180 0 -180 0 0 90 0 90 180 0 180 0 0 90 0 90 90 0 90 0 0 -90z
m1080 -720 l0 -90 -90 0 -90 0 0 -90 0 -90 -180 0 -180 0 0 90 0 90 180 0 180
0 0 90 0 90 90 0 90 0 0 -90z m-5220 -990 l0 -540 90 0 90 0 0 -180 0 -180
270 0 270 0 0 -90 0 -90 -450 0 -450 0 0 810 0 810 90 0 90 0 0 -540z m10620
-630 l0 -450 -810 0 -810 0 0 90 0 90 540 0 540 0 0 90 0 90 180 0 180 0 0
270 0 270 90 0 90 0 0 -450z"/>
<path d="M7200 6570 l0 -90 90 0 90 0 0 -90 0 -90 90 0 90 0 0 180 0 180 -180
0 -180 0 0 -90z"/>
<path d="M7740 6300 l0 -180 180 0 180 0 0 90 0 90 -90 0 -90 0 0 90 0 90 -90
0 -90 0 0 -180z"/>
<path d="M4500 6210 l0 -90 90 0 90 0 0 -90 0 -90 90 0 90 0 0 180 0 180 -180
0 -180 0 0 -90z"/>
<path d="M10440 6210 l0 -90 90 0 90 0 0 -90 0 -90 90 0 90 0 0 180 0 180
-180 0 -180 0 0 -90z"/>
<path d="M5040 5940 l0 -180 180 0 180 0 0 90 0 90 -90 0 -90 0 0 90 0 90 -90
0 -90 0 0 -180z"/>
<path d="M9000 5580 l0 -180 180 0 180 0 0 180 0 180 -180 0 -180 0 0 -180z"/>
<path d="M6300 5220 l0 -180 180 0 180 0 0 180 0 180 -180 0 -180 0 0 -180z"/>
<path d="M5040 4950 l0 -90 -90 0 -90 0 0 -90 0 -90 90 0 90 0 0 90 0 90 180
0 180 0 0 -90 0 -90 90 0 90 0 0 180 0 180 -270 0 -270 0 0 -90z"/>
<path d="M5760 4860 l0 -180 90 0 90 0 0 180 0 180 -90 0 -90 0 0 -180z"/>
<path d="M5940 4320 l0 -180 90 0 90 0 0 180 0 180 -90 0 -90 0 0 -180z"/>
<path d="M4320 3780 l0 -180 180 0 180 0 0 180 0 180 -180 0 -180 0 0 -180z"/>
<path d="M6660 1440 l0 -540 90 0 90 0 0 540 0 540 -90 0 -90 0 0 -540z"/>
<path d="M6840 540 l0 -180 90 0 90 0 0 180 0 180 -90 0 -90 0 0 -180z"/>
<path d="M7380 360 l0 -180 90 0 90 0 0 -90 0 -90 90 0 90 0 0 180 0 180 -90
0 -90 0 0 90 0 90 -90 0 -90 0 0 -180z"/>
</g>
</svg>
